<svg width="103" height="51" viewBox="0 0 103 51" fill="none" xmlns="http://www.w3.org/2000/svg">
<path d="M4.99976 33.3455V13.8467C4.99976 7.47516 10.1649 2.31022 16.5363 2.31022H28.0675C29.6685 2.31022 31.26 2.55168 32.7889 3.0268C34.247 3.47974 35.7631 3.72072 37.2902 3.74179L63.2741 4.10189C65.6155 4.13438 67.9551 3.98483 70.2731 3.65399L70.53 3.61764C70.1302 2.67056 69.4606 1.07369 69.4138 0.885968C69.4109 0.874495 69.4091 0.862846 69.4091 0.850963C69.4091 0.584106 70.1203 0.230619 70.8929 0.617062C71.5503 0.945615 72.7871 2.62297 73.2232 3.23372L76.5304 2.76199C78.6417 2.46112 80.7712 2.31022 82.9036 2.31022H87.4406C95.681 2.31022 102.36 8.98997 102.36 17.2296V29.9628C102.36 38.2027 95.681 44.8826 87.4406 44.8826H82.9036C80.7712 44.8826 78.6417 44.731 76.5304 44.4302L73.2232 43.959C72.7871 44.5695 71.5503 46.2471 70.8929 46.5754C70.1203 46.9618 69.4091 46.6082 69.4091 46.3419C69.4091 46.3296 69.4109 46.3179 69.4138 46.3068C69.4606 46.1183 70.1302 44.5215 70.53 43.575L70.2731 43.5381C67.9551 43.208 65.6155 43.0581 63.2741 43.0903L37.2902 43.4503C35.7631 43.4714 34.247 43.7125 32.7889 44.1656C31.26 44.6409 29.6685 44.8826 28.0675 44.8826H16.5363C10.1649 44.8826 4.99976 39.717 4.99976 33.3455Z" fill="#AEC2BB"/>
<path d="M72.1705 6.31583C74.2812 6.01467 76.4113 5.86377 78.5431 5.86377H83.0801C91.3199 5.86377 97.9998 12.5435 97.9998 20.7834V27.1499V33.5164C97.9998 41.7561 91.3199 48.436 83.0801 48.436H78.5431C76.4113 48.436 74.2812 48.285 72.1705 47.9841L65.9126 47.0921C63.5946 46.7613 61.255 46.6115 58.9136 46.6443L32.9297 47.0042C31.4026 47.0253 29.8865 47.2659 28.4284 47.7195C26.8995 48.1942 25.308 48.436 23.7071 48.436H12.1752C5.80431 48.436 0.638672 43.2709 0.638672 36.8995L0.638672 27.1499L0.638672 17.4005C0.638672 11.0289 5.80431 5.86377 12.1752 5.86377H23.7071C25.308 5.86377 26.8995 6.10522 28.4284 6.58034C29.8865 7.03351 31.4026 7.27433 32.9297 7.29534L58.9136 7.65544C61.255 7.68816 63.5946 7.53837 65.9126 7.20801L72.1705 6.31583Z" fill="#E5E0E9"/>
<path d="M70.8832 46.811C72.8757 47.0949 74.8852 47.2377 76.8976 47.2377H81.1788C88.9551 47.2377 95.2586 40.9342 95.2586 33.1578V27.1498V21.1418C95.2586 13.3659 88.9551 7.06226 81.1788 7.06226H76.8976C74.8852 7.06226 72.8757 7.20473 70.8832 7.48891L64.9783 8.33081C62.7909 8.64268 60.583 8.78381 58.3733 8.75313L33.8521 8.41334C32.4116 8.3935 30.9805 8.16621 29.6049 7.73862C28.162 7.29025 26.66 7.06226 25.1493 7.06226H14.2672C8.25397 7.06226 3.37988 11.9366 3.37988 17.9492L3.37988 27.1498V36.3504C3.37988 42.363 8.25397 47.2377 14.2672 47.2377H25.1493C26.66 47.2377 28.162 47.0095 29.6049 46.5611C30.9805 46.1332 32.4116 45.9061 33.8521 45.8862L58.3733 45.5461C60.583 45.5157 62.7909 45.6567 64.9783 45.9687L70.8832 46.811Z" fill="#FDFDFE"/>
<path d="M69.0202 7.01049C69.0202 7.01049 67.3397 4.57424 66.5325 4.17064C65.7259 3.76729 64.986 4.17064 65.0528 4.43955C65.1207 4.70863 66.4652 7.86883 66.4652 7.86883L69.0202 7.01049Z" fill="#E5E0E9"/>
<path d="M69.0202 47.2893C69.0202 47.2893 67.3397 49.7255 66.5325 50.1293C65.7259 50.5326 64.986 50.1293 65.0528 49.8601C65.1207 49.5914 66.4652 46.4312 66.4652 46.4312L69.0202 47.2893Z" fill="#E5E0E9"/>
<path d="M94.9127 16.9381C95.278 17.0895 95.6754 17.1295 96.0659 17.0799C94.9742 14.3629 93.0672 12.0633 90.645 10.4832C91.4791 11.4766 92.1722 12.5883 92.6873 13.7789C93.2135 14.9942 93.6888 16.4308 94.9127 16.9381Z" fill="#6C9ED1"/>
<path d="M94.9127 37.3619C95.278 37.2103 95.6754 37.1705 96.0659 37.2202C94.9742 39.9368 93.0672 42.2366 90.645 43.8164C91.4791 42.8231 92.1722 41.7116 92.6873 40.521C93.2135 39.3052 93.6888 37.8688 94.9127 37.3619Z" fill="#6C9ED1"/>
<path d="M44.4546 12.5385C49.5517 12.4754 54.2216 12.3492 55.9378 12.3492C61.0812 12.3492 65.9232 8.5166 65.9232 8.5166H45.9765C45.4093 9.83204 44.9357 11.187 44.4546 12.5385Z" fill="#3F4045"/>
<path d="M31.7771 12.4308C35.0123 12.5909 39.4702 12.5939 43.7198 12.547C44.095 11.1895 44.503 9.84258 44.9801 8.5166H29.8513C30.4431 9.84644 31.0805 11.1546 31.7771 12.4308Z" fill="#3F4045"/>
<path d="M28.7435 8.5166H23.4619C23.4619 8.5166 23.5632 11.845 30.421 12.3492C30.6078 12.3629 30.8033 12.3758 31.0029 12.3879C30.2097 11.118 29.3961 9.8599 28.7435 8.5166Z" fill="#3F4045"/>
<path d="M44.4546 41.7612C49.5517 41.8244 54.2216 41.9503 55.9378 41.9503C61.0812 41.9503 65.9232 45.7831 65.9232 45.7831H45.9765C45.4093 44.4678 44.9357 43.1128 44.4546 41.7612Z" fill="#3F4045"/>
<path d="M31.7771 41.8691C35.0123 41.7087 39.4702 41.7058 43.7198 41.7526C44.095 43.11 44.503 44.4575 44.9801 45.7833H29.8513C30.4431 44.4534 31.0805 43.1451 31.7771 41.8691Z" fill="#3F4045"/>
<path d="M28.7435 45.7832H23.4619C23.4619 45.7832 23.5632 42.4549 30.421 41.9504C30.6078 41.9369 30.8033 41.924 31.0029 41.9117C30.2097 43.1819 29.3961 44.4398 28.7435 45.7832Z" fill="#3F4045"/>
<path d="M27.3947 40.0341C27.3947 40.0341 24.6717 34.639 24.6717 27.1499C24.6717 19.6612 27.3947 14.2655 27.3947 14.2655C24.3743 13.2117 20.3261 12.8052 18.1475 12.6551C17.1805 12.5887 16.2684 13.109 15.8384 13.9781C14.7202 16.2381 12.771 21.0537 12.771 27.1499C12.771 33.2464 14.7202 38.0615 15.8384 40.322C16.2684 41.1907 17.1805 41.7111 18.1475 41.6443C20.3261 41.4951 24.3743 41.0883 27.3947 40.0341ZM69.273 43.717C67.6206 43.4876 64.3087 42.7278 60.9254 40.2173C60.4554 39.8684 60.2066 39.2959 60.257 38.7129C60.4226 36.776 60.7791 32.0446 60.7791 27.1499C60.7791 22.255 60.4226 17.5238 60.257 15.5869C60.2066 15.0038 60.4554 14.4313 60.9254 14.0829C64.3087 11.572 67.6206 10.8125 69.273 10.5825C69.976 10.4848 70.669 10.8221 71.0091 11.4443C71.9521 13.1687 73.5876 17.5453 73.5876 27.1499C73.5876 36.7544 71.9521 41.131 71.0091 42.856C70.669 43.4782 69.976 43.8148 69.273 43.717Z" fill="#3F4045"/>
<path d="M3.39243 13.2391C3.77975 11.9619 4.47051 10.7777 5.39196 9.81163C5.63183 9.55987 5.89178 9.31572 6.04222 9.00222C6.14582 8.7857 6.18083 8.52411 6.11702 8.29846C4.26564 9.6523 2.97742 11.727 2.66187 14.11L2.68633 14.1125C3.08741 14.0997 3.27466 13.6234 3.39243 13.2391Z" fill="#EF3725"/>
<path d="M3.39243 41.0607C3.77975 42.3379 4.47051 43.5221 5.39196 44.4885C5.63183 44.7402 5.89178 44.9837 6.04222 45.2974C6.14582 45.514 6.18083 45.7756 6.11702 46.0016C4.26564 44.6477 2.97742 42.5726 2.66187 40.1897L2.68633 40.1874C3.08741 40.2003 3.27466 40.6761 3.39243 41.0607Z" fill="#EF3725"/>
</svg>
