<svg width="102" height="52" viewBox="0 0 102 52" fill="none" xmlns="http://www.w3.org/2000/svg">
<path d="M102 13.4006V32.8994C102 39.2709 96.8348 44.4359 90.4635 44.4359H78.9323C77.3313 44.4359 75.7397 44.1944 74.2108 43.7193C72.7527 43.2664 71.2367 43.0254 69.7095 43.0043L43.7256 42.6442C41.3843 42.6117 39.0446 42.7613 36.7267 43.0921L36.4697 43.1284C36.8695 44.0755 37.5392 45.6724 37.586 45.8601C37.5889 45.8716 37.5907 45.8832 37.5907 45.8951C37.5907 46.162 36.8795 46.5155 36.1068 46.129C35.4495 45.8005 34.2126 44.1231 33.7766 43.5124L30.4694 43.9841C28.3581 44.285 26.2286 44.4359 24.0962 44.4359H19.5592C11.3187 44.4359 4.63942 37.7561 4.63942 29.5165V16.7833C4.63942 8.54339 11.3187 1.86347 19.5592 1.86347H24.0962C26.2286 1.86347 28.3581 2.01508 30.4694 2.31594L33.7766 2.78714C34.2126 2.17663 35.4495 0.499039 36.1068 0.170662C36.8795 -0.215664 37.5907 0.137882 37.5907 0.404213C37.5907 0.416504 37.5889 0.428211 37.586 0.439331C37.5392 0.627811 36.8695 2.22463 36.4697 3.17113L36.7267 3.208C39.0446 3.53814 41.3843 3.68798 43.7256 3.65579L69.7095 3.2958C71.2367 3.27473 72.7527 3.03357 74.2108 2.58052C75.7397 2.10522 77.3313 1.86347 78.9323 1.86347H90.4635C96.8348 1.86347 102 7.02912 102 13.4006Z" fill="#AEC2BB"/>
<path d="M25.8293 49.4301C23.7186 49.7313 21.5885 49.8822 19.4567 49.8822H14.9197C6.67983 49.8822 -8.39233e-05 43.2025 -8.39233e-05 34.9626V28.5961V22.2296C-8.39233e-05 13.9899 6.67983 7.30998 14.9197 7.30998H19.4567C21.5885 7.30998 23.7186 7.46099 25.8293 7.76186L32.0872 8.65392C34.4051 8.98464 36.7448 9.13449 39.0861 9.10171L65.07 8.74172C66.5972 8.72065 68.1132 8.48008 69.5713 8.02644C71.1002 7.55172 72.6918 7.30998 74.2927 7.30998H85.8246C92.1954 7.30998 97.3611 12.475 97.3611 18.8465V28.5961V38.3455C97.3611 44.717 92.1954 49.8822 85.8246 49.8822H74.2927C72.6918 49.8822 71.1002 49.6408 69.5713 49.1656C68.1132 48.7125 66.5972 48.4716 65.07 48.4506L39.0861 48.0905C36.7448 48.0578 34.4051 48.2076 32.0872 48.538L25.8293 49.4301Z" fill="#E5E0E9"/>
<path d="M27.1165 8.93495C25.124 8.65106 23.1145 8.50823 21.1021 8.50823H16.821C9.04469 8.50823 2.74113 14.8118 2.74113 22.5882V28.5962V34.6041C2.74113 42.38 9.04469 48.6837 16.821 48.6837H21.1021C23.1145 48.6837 25.124 48.5412 27.1165 48.2571L33.0215 47.4152C35.2089 47.1033 37.4168 46.9622 39.6265 46.9928L64.1476 47.3326C65.5881 47.3525 67.0193 47.5798 68.3949 48.0074C69.8377 48.4557 71.3397 48.6837 72.8505 48.6837H83.7325C89.7458 48.6837 94.6199 43.8093 94.6199 37.7968V28.5962V19.3956C94.6199 13.383 89.7458 8.50823 83.7325 8.50823H72.8505C71.3397 8.50823 69.8377 8.73652 68.3949 9.18489C67.0193 9.61278 65.5881 9.83989 64.1476 9.85979L39.6265 10.1999C37.4168 10.2303 35.2089 10.0892 33.0215 9.77726L27.1165 8.93495Z" fill="#FDFDFE"/>
<path d="M28.9798 48.7356C28.9798 48.7356 30.6603 51.1719 31.4675 51.5754C32.2741 51.9788 33.014 51.5754 32.9472 51.3065C32.8793 51.0375 31.5348 47.8773 31.5348 47.8773L28.9798 48.7356Z" fill="#E5E0E9"/>
<path d="M28.9798 8.45683C28.9798 8.45683 30.6603 6.02064 31.4675 5.61675C32.2741 5.21345 33.014 5.61675 32.9472 5.88601C32.8793 6.15468 31.5348 9.31494 31.5348 9.31494L28.9798 8.45683Z" fill="#E5E0E9"/>
<path d="M3.08701 38.8078C2.72176 38.6565 2.32431 38.6164 1.93389 38.6661C3.02555 41.3831 4.93259 43.6826 7.35474 45.2628C6.52062 44.2694 5.82759 43.1576 5.31248 41.967C4.78626 40.7518 4.31096 39.3152 3.08701 38.8078Z" fill="#6C9ED1"/>
<path d="M3.08701 18.3841C2.72176 18.5357 2.32431 18.5755 1.93389 18.5257C3.02555 15.8092 4.93259 13.5094 7.35474 11.9295C6.52062 12.9229 5.82759 14.0344 5.31248 15.225C4.78626 16.4408 4.31096 17.8772 3.08701 18.3841Z" fill="#6C9ED1"/>
<path d="M53.5454 43.2075C48.4483 43.2706 43.7784 43.3968 42.0622 43.3968C36.9188 43.3968 32.0768 47.2295 32.0768 47.2295H52.0235C52.5907 45.9141 53.0643 44.5591 53.5454 43.2075Z" fill="#3F4045"/>
<path d="M66.2227 43.3152C62.9875 43.1552 58.5295 43.1522 54.2799 43.1991C53.9047 44.5566 53.4967 45.9035 53.0197 47.2295H68.1484C67.5567 45.8997 66.9192 44.5915 66.2227 43.3152Z" fill="#3F4045"/>
<path d="M69.2565 47.2295H74.5381C74.5381 47.2295 74.4368 43.9011 67.579 43.3968C67.3922 43.3831 67.1967 43.3703 66.9971 43.3582C67.7903 44.6281 68.6039 45.8862 69.2565 47.2295Z" fill="#3F4045"/>
<path d="M53.5454 13.9847C48.4483 13.9215 43.7784 13.7957 42.0622 13.7957C36.9188 13.7957 32.0768 9.96286 32.0768 9.96286L52.0235 9.96286C52.5907 11.2781 53.0643 12.6332 53.5454 13.9847Z" fill="#3F4045"/>
<path d="M66.2227 13.877C62.9875 14.0374 58.5295 14.0403 54.2799 13.9935C53.9047 12.6361 53.4967 11.2886 53.0197 9.96283L68.1484 9.96283C67.5567 11.2927 66.9192 12.601 66.2227 13.877Z" fill="#3F4045"/>
<path d="M69.2565 9.9629H74.5381C74.5381 9.9629 74.4368 13.2912 67.579 13.7957C67.3922 13.8092 67.1967 13.8221 66.9971 13.8344C67.7903 12.5642 68.6039 11.3063 69.2565 9.9629Z" fill="#3F4045"/>
<path d="M70.605 15.712C70.605 15.712 73.3281 21.1071 73.3281 28.5962C73.3281 36.0849 70.605 41.4806 70.605 41.4806C73.6254 42.5344 77.6736 42.9409 79.8523 43.0909C80.8193 43.1574 81.7313 42.6371 82.1614 41.768C83.2795 39.508 85.2288 34.6924 85.2288 28.5962C85.2288 22.4997 83.2795 17.6846 82.1614 15.4241C81.7313 14.5554 80.8193 14.035 79.8523 14.1018C77.6736 14.251 73.6254 14.6578 70.605 15.712ZM28.7267 12.0291C30.3792 12.2585 33.691 13.0183 37.0743 15.5288C37.5443 15.8777 37.7931 16.4502 37.7428 17.0332C37.5771 18.9701 37.2206 23.7015 37.2206 28.5962C37.2206 33.4911 37.5771 38.2223 37.7428 40.1592C37.7931 40.7423 37.5443 41.3148 37.0743 41.6632C33.691 44.1741 30.3792 44.9336 28.7267 45.1636C28.0237 45.2613 27.3307 44.924 26.9906 44.3018C26.0476 42.5774 24.4122 38.2008 24.4122 28.5962C24.4122 18.9917 26.0476 14.6151 26.9906 12.8901C27.3307 12.2679 28.0237 11.9313 28.7267 12.0291Z" fill="#3F4045"/>
<path d="M94.6076 42.507C94.2202 43.7842 93.5295 44.9684 92.608 45.9345C92.3682 46.1862 92.1082 46.4304 91.9578 46.7439C91.8542 46.9604 91.8192 47.222 91.883 47.4476C93.7344 46.0938 95.0226 44.0191 95.3381 41.6361L95.3137 41.6335C94.9126 41.6464 94.7253 42.1227 94.6076 42.507Z" fill="#EF3725"/>
<path d="M94.6076 14.6854C94.2202 13.4082 93.5295 12.224 92.608 11.2576C92.3682 11.0059 92.1082 10.7624 91.9578 10.4487C91.8542 10.2321 91.8192 9.97045 91.883 9.74451C93.7344 11.0984 95.0226 13.1734 95.3381 15.5564L95.3137 15.5587C94.9126 15.5458 94.7253 15.07 94.6076 14.6854Z" fill="#EF3725"/>
</svg>
