<svg width="108" height="45" viewBox="0 0 108 45" fill="none" xmlns="http://www.w3.org/2000/svg">
<rect width="108" height="45" fill="#79BBFF" fill-opacity="0.7"/>
<rect width="4" height="45" fill="#3277D8" fill-opacity="0.82"/>
<path d="M48.7995 18.2H50.1995V28H48.7995V18.2ZM43.1715 28H41.7715V18.2H43.1715V28ZM48.9255 23.632H43.0315V22.414H48.9255V23.632ZM54.1268 22.428H59.1668V23.618H54.1268V22.428ZM54.2528 26.782H59.9648V28H52.8528V18.2H59.7688V19.418H54.2528V26.782ZM53.8188 17.402L55.6948 16.002H56.9548L58.8308 17.402H57.5988L55.7648 16.268H56.8848L55.0508 17.402H53.8188ZM57.7108 16.17L59.3628 14.588H60.8888L58.8168 16.17H57.7108ZM63.8977 28V19.418H60.5377V18.2H68.6437V19.418H65.2837V28H63.8977Z" fill="white"/>
</svg>
